# xmcd
#
# Track frame offsets:
#	150
#	10224
#	22201
#	31873
#	40424
#	50291
#	59137
#	70359
#	81199
#	95153
#	105074
#	114936
#	125874
#	138677
#	149207
#	160371
#	172785
#	185747
#	193902
#	203468
#	216295
#	224698
#	236886
#	245341
#
# Disc length: 3480 seconds
#
# Revision: 1
# Processed by: cddbd v1.5.2PL0 Copyright (c) Steve Scherf et al.
# Submitted via: audiograbber 1.83.01
#
DISCID=780d9618
DTITLE=don gibson - sweet dreams (1960) girls, guitars and gibson (1961)
DYEAR=2013
DGENRE=Country
TTITLE0=hurtin' inside
TTITLE1=the world is waiting for the sunrise
TTITLE2=far far away
TTITLE3=sweet dreams
TTITLE4=what about me
TTITLE5=what's the reason i'm not pleasin' you
TTITLE6=my tears don't show
TTITLE7=(i'd be) a legend in my time
TTITLE8=the next voice you hear
TTITLE9=foolish me
TTITLE10=time hurts (as well as it heals)
TTITLE11=maybe tomorrow
TTITLE12=lonesome road
TTITLE13=i think it's best (to forget me)
TTITLE14=born to lose
TTITLE15=white silver sands
TTITLE16=no one will ever know
TTITLE17=fireball mail 9
TTITLE18=above and beyond (the call of duty)
TTITLE19=driftwood on the river
TTITLE20=camptown races
TTITLE21=beautiful dreamer
TTITLE22=cute little girls
TTITLE23=last letter
EXTD=
EXTT0=
EXTT1=
EXTT2=
EXTT3=
EXTT4=
EXTT5=
EXTT6=
EXTT7=
EXTT8=
EXTT9=
EXTT10=
EXTT11=
EXTT12=
EXTT13=
EXTT14=
EXTT15=
EXTT16=
EXTT17=
EXTT18=
EXTT19=
EXTT20=
EXTT21=
EXTT22=
EXTT23=
PLAYORDER=
